<svg xmlns="http://www.w3.org/2000/svg" viewBox="0 0 180 252"><defs><style>.cls-1{fill:#fff;}.cls-2{font-size:22px;}.cls-2,.cls-3,.cls-4{fill:red;}.cls-2,.cls-4{font-family:Vollkorn-Regular, Vollkorn;}.cls-4{font-size:20px;}</style></defs><title>Heart-ace</title><g id="Hearts"><g id="ace-4" data-name="ace"><rect class="cls-1" width="180" height="252" rx="12" ry="12"/><text class="cls-2" transform="translate(8.51 26.27)">A</text><path class="cls-3" d="M36,14v.23c-.21,3.56-5.21,10.25-7,10.25s-6.78-6.69-7-10.25V14a3.5,3.5,0,1,1,7,0,3.5,3.5,0,1,1,7,0Z"/><text class="cls-4" transform="translate(170.12 226.94) rotate(180)">A </text><path class="cls-3" d="M158,238v-.23c-.21-3.56-5.21-10.25-7-10.25s-6.78,6.69-7,10.25V238a3.5,3.5,0,0,0,7,0,3.5,3.5,0,0,0,7,0Z"/><path class="cls-3" d="M144,102.87v.45c0,.17,0,.34,0,.51v.26c0,.1,0,.2,0,.3-1.62,24.17-40.2,69.47-53.95,69.47s-52.33-45.3-53.95-69.47c0-.1,0-.2,0-.3v-.26c0-.17,0-.34,0-.51v-.45c0-13.11,12.09-23.73,27-23.73s27,10.62,27,23.73c0-13.11,12.09-23.73,27-23.73S144,89.76,144,102.87Z"/><path class="cls-1" d="M111,92.6c9.94,0,18,7,18,15.49v.28c0,.11,0,.21,0,.32v.38c-.52,7.8-7,20.23-16.81,32.45S93.39,160.4,90,160.4s-12.34-6.62-22.23-18.88S51.48,116.87,51,109.07v-.38c0-.11,0-.21,0-.3v-.3c0-8.54,8.09-15.49,18-15.49s18,7,18,15.49a3,3,0,0,0,6,0c0-8.54,8.09-15.49,18-15.49m0-3c-11.62,0-21,8.28-21,18.49C90,97.88,80.58,89.6,69,89.6s-21,8.28-21,18.49v.35c0,.13,0,.27,0,.4v.2c0,.08,0,.15,0,.23,1.25,18.83,31.32,54.13,42,54.13s40.78-35.3,42-54.13c0-.08,0-.15,0-.23v-.2c0-.13,0-.27,0-.4v-.35c0-10.21-9.41-18.49-21-18.49Z"/><path class="cls-1" d="M93.44,110.18a1.47,1.47,0,0,0-1.12.51,9.27,9.27,0,0,0-1.9,3.3h0v0h0v0h0v0h0v0h0v0h0v0h0v0h0v0h0c0,.21-.1.43-.14.64a1.5,1.5,0,0,0,1.21,1.75l.27,0a1.5,1.5,0,0,0,1.47-1.23,6.42,6.42,0,0,1,1.48-3,1.49,1.49,0,0,0-.14-2.11,1.51,1.51,0,0,0-1-.37Zm-8-1.11a1.5,1.5,0,0,0-.93,2.67,7,7,0,0,1,2.09,2.74,1.5,1.5,0,0,0,1.39.93,1.65,1.65,0,0,0,.57-.11,1.51,1.51,0,0,0,.82-2,9.18,9.18,0,0,0-.48-1h0l0,0h0l0,0h0l0,0h0l0,0h-.2v0h0v0h0v0h0v0h0l0,0h0l0,0h0l0,0h0a10.26,10.26,0,0,0-2.08-2.24,1.52,1.52,0,0,0-.94-.33Zm-6.61-2.24h-.44a11.21,11.21,0,0,0-1.3.11h-.12a1.5,1.5,0,0,0,.21,3l.22,0a9.94,9.94,0,0,1,3.79.19,1.64,1.64,0,0,0,.37,0A1.52,1.52,0,0,0,83,109a1.51,1.51,0,0,0-1.09-1.82c-.23-.06-.47-.11-.7-.15h-2.4Zm-5.73,1.6a1.49,1.49,0,0,0-.8.24,10.75,10.75,0,0,0-2,1.58h0l0,0h0l0,0h0l0,0h0l0,0h0l0,0h0l0,0h-.06l0,0h0v0h0l0,0h-.25v0h-.47v0h0v0h0l0,0h0v0h0v0h0l0,.06h0l0,.07h0c-.1.14-.19.28-.28.43a1.5,1.5,0,0,0,.55,2,1.44,1.44,0,0,0,.75.21,1.5,1.5,0,0,0,1.3-.75,7.4,7.4,0,0,1,2.47-2.51,1.5,1.5,0,0,0-.8-2.77Zm-4,7h0A1.51,1.51,0,0,0,67.57,117a.53.53,0,0,1,0,.13h0v.1a16.46,16.46,0,0,0,1,4.5h0l0,.09a1.49,1.49,0,0,0,1.41,1,1.52,1.52,0,0,0,.51-.09,1.49,1.49,0,0,0,.89-1.92,13.75,13.75,0,0,1-.88-3.69s0-.07,0-.08v-.15a1.51,1.51,0,0,0-1.5-1.46Zm3,8.74a1.42,1.42,0,0,0-.71.18,1.5,1.5,0,0,0-.61,2c.27.49.55,1,.84,1.48h0l0,.06h0v0h0l0,0h.08v0h0v0h0v0h0v0h0v0h0v0h0v0h0v0h0l0,0h0v0h0v0h0l0,.06h0c.42.7.87,1.39,1.33,2.08a1.48,1.48,0,0,0,1.24.66,1.52,1.52,0,0,0,.84-.25,1.5,1.5,0,0,0,.41-2.08q-1.38-2.07-2.45-4a1.49,1.49,0,0,0-1.32-.78Zm5.39,8.11a1.45,1.45,0,0,0-.92.32,1.49,1.49,0,0,0-.26,2.1c.57.73,1.15,1.44,1.73,2.13h0l0,.06h0l0,0h0l0,0h0l0,0h0l0,0h0l0,0h0v0h0v0h.11v0h0v0h0v0h.13v0h.28v0H79v0h0l0,0h0l0,0h0l0,0h0l0,0h0v0h0l0,0h0l0,0h0v0h0l0,0h0l0,0h0l.1.12h0l.08.09a1.52,1.52,0,0,0,1.11.49,1.47,1.47,0,0,0,1-.4,1.49,1.49,0,0,0,.1-2.11c-1-1.15-2.08-2.38-3.08-3.65a1.49,1.49,0,0,0-1.18-.58ZM84,139.45a1.5,1.5,0,0,0-1,2.61l.28.26h0l0,0h.11l0,0h0q.87.77,1.68,1.38h0l0,0h0l0,0h0l0,0h.18l0,0h0a17.35,17.35,0,0,0,1.48,1,1.5,1.5,0,0,0,1.53-2.59A22.62,22.62,0,0,1,85,139.84a1.5,1.5,0,0,0-1-.39Zm10.88.93a1.5,1.5,0,0,0-1,.34,15.45,15.45,0,0,1-3.4,2.28,1.5,1.5,0,0,0,.58,2.88,1.42,1.42,0,0,0,.57-.12h.6l0,0h0A20.75,20.75,0,0,0,95.87,143a1.49,1.49,0,0,0,.19-2.11,1.47,1.47,0,0,0-1.15-.54Zm6.74-7a1.51,1.51,0,0,0-1.16.55c-1,1.27-2.09,2.47-3.15,3.57a1.5,1.5,0,0,0,2.17,2.08h.09l0,0h0c1.07-1.12,2.14-2.34,3.19-3.62a1.51,1.51,0,0,0-.22-2.11,1.48,1.48,0,0,0-.95-.34Zm5.59-8a1.49,1.49,0,0,0-1.3.74c-.76,1.31-1.62,2.65-2.56,4a1.49,1.49,0,0,0,.37,2.09,1.45,1.45,0,0,0,.86.28,1.5,1.5,0,0,0,1.22-.64c.6-.85,1.18-1.72,1.72-2.59h0l0-.06h0v0h0v0h0v0h.12v0h0v0h.06v0h0v0h0v0h0l0,0h0l0-.07h0l.55-.92a1.5,1.5,0,0,0-.55-2,1.43,1.43,0,0,0-.75-.2Zm3.55-8.71a1.51,1.51,0,0,0-1.48,1.25A18.1,18.1,0,0,1,108,122a1.5,1.5,0,0,0,.79,2,1.5,1.5,0,0,0,2-.79c.12-.28.23-.56.34-.84h0v0h.06v0h0l0-.06h0a19.31,19.31,0,0,0,.92-3.22h0v0h0v0h0l0-.08a1.5,1.5,0,0,0-1.24-1.72,1.06,1.06,0,0,0-.25,0ZM108,109.18a1.5,1.5,0,0,0-1,2.65,6.94,6.94,0,0,1,2,2.77,1.5,1.5,0,0,0,1.4,1,1.47,1.47,0,0,0,.54-.1,1.5,1.5,0,0,0,.86-1.94A9.9,9.9,0,0,0,109,109.6h0l0,0h0l0,0h0l0,0h0a1.45,1.45,0,0,0-1-.35Zm-6.76-2.35h-2.6a11.32,11.32,0,0,0-2.27.71,1.5,1.5,0,0,0,.59,2.88,1.52,1.52,0,0,0,.59-.12,9.35,9.35,0,0,1,3.69-.74h0a9.63,9.63,0,0,1,2.52.33,1.74,1.74,0,0,0,.39,0,1.5,1.5,0,0,0,.39-2.95A11.75,11.75,0,0,0,103,107h-1.82Z"/><path class="cls-1" d="M99.53,122.33v.08a.28.28,0,0,1,0,.09v.1c-.29,4.26-7.09,12.26-9.52,12.26s-9.23-8-9.52-12.26v-.1a.28.28,0,0,1,0-.09v-.08a4.8,4.8,0,0,1,9.53,0,4.8,4.8,0,0,1,9.53,0Z"/></g></g></svg>