<svg xmlns="http://www.w3.org/2000/svg" viewBox="0 0 180 252"><defs><style>.cls-1{fill:#fff;}.cls-2{font-size:22px;}.cls-2,.cls-3,.cls-4{fill:red;}.cls-2,.cls-4{font-family:Vollkorn-Regular, Vollkorn;}.cls-4{font-size:20px;}</style></defs><title>Heart-2</title><g id="Hearts"><g id="_2-4" data-name="2"><rect class="cls-1" width="180" height="252" rx="12" ry="12"/><text class="cls-2" transform="translate(12.19 26.27)">2</text><path class="cls-3" d="M36,14v.23c-.21,3.56-5.21,10.25-7,10.25s-6.78-6.69-7-10.25V14a3.5,3.5,0,1,1,7,0,3.5,3.5,0,1,1,7,0Z"/><text class="cls-4" transform="translate(166.78 226.94) rotate(180)">2 </text><path class="cls-3" d="M158,238v-.23c-.21-3.56-5.21-10.25-7-10.25s-6.78,6.69-7,10.25V238a3.5,3.5,0,0,0,7,0,3.5,3.5,0,0,0,7,0Z"/><path class="cls-3" d="M107.54,36.27v.18a1.27,1.27,0,0,0,0,.2v.1a.37.37,0,0,0,0,.11C107,46.3,93.72,64,89,64S71,46.3,70.48,36.86a.37.37,0,0,0,0-.11v-.1a1.27,1.27,0,0,0,0-.2v-.18a9.27,9.27,0,1,1,18.54,0,9.27,9.27,0,0,1,18.54,0Z"/><path class="cls-3" d="M106.54,215.73v-.18a1.27,1.27,0,0,1,0-.2v-.1a.37.37,0,0,1,0-.11C106,205.7,92.72,188,88,188s-18,17.7-18.52,27.14a.37.37,0,0,1,0,.11v.1a1.27,1.27,0,0,1,0,.2v.18a9.27,9.27,0,1,0,18.54,0,9.27,9.27,0,0,0,18.54,0Z"/></g></g></svg>