<svg xmlns="http://www.w3.org/2000/svg" viewBox="0 0 180 252"><defs><style>.cls-1{fill:#fff;}.cls-2{font-size:22px;}.cls-2,.cls-3,.cls-4{fill:red;}.cls-2,.cls-4{font-family:Vollkorn-Regular, Vollkorn;}.cls-4{font-size:20px;}</style></defs><title>Heart-9</title><g id="Hearts"><g id="_9-4" data-name="9"><rect class="cls-1" width="180" height="252" rx="12" ry="12"/><text class="cls-2" transform="translate(12.58 26.27)">9</text><path class="cls-3" d="M36,14v.23c-.21,3.56-5.21,10.25-7,10.25s-6.78-6.69-7-10.25V14a3.5,3.5,0,1,1,7,0,3.5,3.5,0,1,1,7,0Z"/><text class="cls-4" transform="translate(170.42 226.94) rotate(180)"><tspan xml:space="preserve"> 9</tspan></text><path class="cls-3" d="M158,238v-.23c-.21-3.56-5.21-10.25-7-10.25s-6.78,6.69-7,10.25V238a3.5,3.5,0,0,0,7,0,3.5,3.5,0,0,0,7,0Z"/><path class="cls-3" d="M73.54,36.27v.18a1.27,1.27,0,0,0,0,.2v.1a.37.37,0,0,0,0,.11C73,46.3,59.72,64,55,64S37,46.3,36.48,36.86a.37.37,0,0,0,0-.11v-.1a1.27,1.27,0,0,0,0-.2v-.18a9.27,9.27,0,0,1,18.54,0,9.27,9.27,0,0,1,18.54,0Z"/><path class="cls-3" d="M143.54,36.27v.18a1.27,1.27,0,0,0,0,.2v.1a.37.37,0,0,0,0,.11C143,46.3,129.72,64,125,64s-18-17.7-18.52-27.14a.37.37,0,0,0,0-.11v-.1a1.27,1.27,0,0,0,0-.2v-.18a9.27,9.27,0,1,1,18.54,0,9.27,9.27,0,1,1,18.54,0Z"/><path class="cls-3" d="M144.54,197.27v.18a1.27,1.27,0,0,0,0,.2v.1a.37.37,0,0,0,0,.11C144,207.3,130.72,225,126,225s-18-17.7-18.52-27.14a.37.37,0,0,0,0-.11v-.1a1.27,1.27,0,0,0,0-.2v-.18a9.27,9.27,0,1,1,18.54,0,9.27,9.27,0,1,1,18.54,0Z"/><path class="cls-3" d="M73.54,197.27v.18a1.27,1.27,0,0,0,0,.2v.1a.37.37,0,0,0,0,.11C73,207.3,59.72,225,55,225s-18-17.7-18.52-27.14a.37.37,0,0,0,0-.11v-.1a1.27,1.27,0,0,0,0-.2v-.18a9.27,9.27,0,1,1,18.54,0,9.27,9.27,0,0,1,18.54,0Z"/><path class="cls-3" d="M73.54,116.27v.18a1.27,1.27,0,0,0,0,.2v.1a.37.37,0,0,0,0,.11C73,126.3,59.72,144,55,144s-18-17.7-18.52-27.14a.37.37,0,0,0,0-.11v-.1a1.27,1.27,0,0,0,0-.2v-.18a9.27,9.27,0,0,1,18.54,0,9.27,9.27,0,0,1,18.54,0Z"/><path class="cls-3" d="M143.54,117.27v.18a1.27,1.27,0,0,0,0,.2v.1a.37.37,0,0,0,0,.11C143,127.3,129.72,145,125,145s-18-17.7-18.52-27.14a.37.37,0,0,0,0-.11v-.1a1.27,1.27,0,0,0,0-.2v-.18a9.27,9.27,0,0,1,18.54,0,9.27,9.27,0,1,1,18.54,0Z"/><path class="cls-3" d="M108.54,215.73v-.18a1.27,1.27,0,0,1,0-.2v-.1a.37.37,0,0,1,0-.11C108,205.7,94.72,188,90,188s-18,17.7-18.52,27.14a.37.37,0,0,1,0,.11v.1a1.27,1.27,0,0,1,0,.2v.18a9.27,9.27,0,1,0,18.54,0,9.27,9.27,0,0,0,18.54,0Z"/><path class="cls-3" d="M108.54,134.73v-.18a1.27,1.27,0,0,1,0-.2v-.1a.37.37,0,0,1,0-.11C108,124.7,94.72,107,90,107s-18,17.7-18.52,27.14a.37.37,0,0,1,0,.11v.1a1.27,1.27,0,0,1,0,.2v.18a9.27,9.27,0,1,0,18.54,0,9.27,9.27,0,0,0,18.54,0Z"/><path class="cls-3" d="M108.54,54.73v-.18a1.27,1.27,0,0,1,0-.2v-.1a.37.37,0,0,1,0-.11C108,44.7,94.72,27,90,27S72,44.7,71.48,54.14a.37.37,0,0,1,0,.11v.1a1.27,1.27,0,0,1,0,.2v.18a9.27,9.27,0,1,0,18.54,0,9.27,9.27,0,0,0,18.54,0Z"/></g></g></svg>