<svg xmlns="http://www.w3.org/2000/svg" viewBox="0 0 180 252"><defs><style>.cls-1{fill:#fff;}.cls-2{font-size:22px;}.cls-2,.cls-3,.cls-4{fill:red;}.cls-2,.cls-4{font-family:Vollkorn-Regular, Vollkorn;}.cls-4{font-size:20px;}</style></defs><title>Heart-king</title><g id="Hearts"><g id="king-4" data-name="king"><rect class="cls-1" width="180" height="252" rx="12" ry="12"/><text class="cls-2" transform="translate(9.08 26.27)">K</text><path class="cls-3" d="M36,14v.23c-.21,3.56-5.21,10.25-7,10.25s-6.78-6.69-7-10.25V14a3.5,3.5,0,1,1,7,0,3.5,3.5,0,1,1,7,0Z"/><text class="cls-4" transform="translate(169.6 226.94) rotate(180)">K</text><path class="cls-3" d="M158,238v-.23c-.21-3.56-5.21-10.25-7-10.25s-6.78,6.69-7,10.25V238a3.5,3.5,0,0,0,7,0,3.5,3.5,0,0,0,7,0Z"/><g id="King-5" data-name="King"><g id="crown_1" data-name="crown 1"><path class="cls-3" d="M67.63,64.68h45.62v-18s-11.38,15-22.81-4.85c-11.31,19.81-22.69,4.85-22.75,4.85Z"/><circle class="cls-3" cx="67.75" cy="46.72" r="2.99"/><circle class="cls-3" cx="113.25" cy="46.72" r="2.99"/></g><path class="cls-3" d="M67.39,104.36v41.19l45.76-45.77a23.12,23.12,0,0,0-6.94-12.37,23,23,0,0,0,7.4-17,23.52,23.52,0,0,0-.39-4.23H67.78a22.64,22.64,0,0,0-.39,4.23,23,23,0,0,0,7.4,17A23,23,0,0,0,67.39,104.36Z"/><path class="cls-3" d="M113.61,146.25V104.77L67.8,150.58a23.08,23.08,0,0,0,7,12.62,23,23,0,0,0-7.4,17,22.64,22.64,0,0,0,.39,4.23h45.44a23.52,23.52,0,0,0,.39-4.23,23,23,0,0,0-7.4-17A23,23,0,0,0,113.61,146.25Z"/><g id="crown_1-2" data-name="crown 1"><path class="cls-3" d="M113.37,186.14H67.75v18s11.38-15,22.81,4.85c11.31-19.82,22.69-4.85,22.75-4.85Z"/><circle class="cls-3" cx="113.25" cy="204.1" r="2.99"/><circle class="cls-3" cx="67.75" cy="204.1" r="2.99"/></g><path class="cls-3" d="M97.14,31.83V32c-.19,2.89-4.79,8.3-6.44,8.3S84.45,34.9,84.26,32v-.18a3.25,3.25,0,0,1,6.44,0,3.25,3.25,0,0,1,6.45,0Z"/><path class="cls-3" d="M83.86,219.17V219c.19-2.89,4.79-8.3,6.44-8.3s6.24,5.41,6.43,8.3v.18a3.25,3.25,0,0,1-6.44,0,3.25,3.25,0,0,1-6.45,0Z"/></g></g></g></svg>