<svg xmlns="http://www.w3.org/2000/svg" viewBox="0 0 180 252"><defs><style>.cls-1{fill:#fff;}.cls-2{font-size:22px;}.cls-2,.cls-3,.cls-4{fill:red;}.cls-2,.cls-4{font-family:Vollkorn-Regular, Vollkorn;}.cls-4{font-size:20px;}</style></defs><title>Heart-jack</title><g id="Hearts"><g id="jack-4" data-name="jack"><rect class="cls-1" width="180" height="252" rx="12" ry="12"/><text class="cls-2" transform="translate(16.76 26.27)">J</text><path class="cls-3" d="M36,14v.23c-.21,3.56-5.21,10.25-7,10.25s-6.78-6.69-7-10.25V14a3.5,3.5,0,1,1,7,0,3.5,3.5,0,1,1,7,0Z"/><text class="cls-4" transform="translate(162.62 226.94) rotate(180)">J</text><path class="cls-3" d="M158,238v-.23c-.21-3.56-5.21-10.25-7-10.25s-6.78,6.69-7,10.25V238a3.5,3.5,0,0,0,7,0,3.5,3.5,0,0,0,7,0Z"/><g id="Jack-5" data-name="Jack"><g id="crown_3" data-name="crown 3"><path class="cls-3" d="M67,66.86h45.81V62.05S101.39,63.86,89.9,44C78.54,63.86,67.06,62.05,67,62.05Z"/></g><g id="crown_3-2" data-name="crown 3"><path class="cls-3" d="M67,186.52h45.81v4.81s-11.42-1.8-22.91,18.1c-11.36-19.9-22.84-18.1-22.9-18.1Z"/></g><path class="cls-3" d="M67.38,106v40.65l45.17-45.16a22.78,22.78,0,0,0-6.86-12.22A22.7,22.7,0,0,0,113,72.57a23.16,23.16,0,0,0-.39-4.19H67.77a23.16,23.16,0,0,0-.39,4.19,22.7,22.7,0,0,0,7.31,16.72A22.73,22.73,0,0,0,67.38,106Z"/><path class="cls-3" d="M113,147.36V106.43L67.79,151.64a22.7,22.7,0,0,0,6.9,12.45,22.73,22.73,0,0,0-7.31,16.73,23,23,0,0,0,.39,4.18h44.84a23,23,0,0,0,.39-4.18,22.73,22.73,0,0,0-7.31-16.73A22.73,22.73,0,0,0,113,147.36Z"/><path class="cls-3" d="M96.36,34.06v.18c-.19,2.84-4.74,8.18-6.36,8.18s-6.17-5.34-6.36-8.18v-.18a3.21,3.21,0,0,1,6.36,0,3.21,3.21,0,0,1,6.36,0Z"/><path class="cls-3" d="M83.25,218.94v-.05a.13.13,0,0,1,0-.06v-.07c.19-2.84,4.74-8.18,6.36-8.18s6.16,5.34,6.35,8.18v.07a.13.13,0,0,1,0,.06v.05a3.21,3.21,0,0,1-6.36,0,3.21,3.21,0,0,1-6.37,0Z"/></g></g></g></svg>