<svg xmlns="http://www.w3.org/2000/svg" viewBox="0 0 180 252"><defs><style>.cls-1{fill:#fff;}.cls-2{font-size:22px;}.cls-2,.cls-3,.cls-4{fill:red;}.cls-2,.cls-4{font-family:Vollkorn-Regular, Vollkorn;}.cls-4{font-size:20px;}</style></defs><title>Heart-queen</title><g id="Hearts"><g id="queen-4" data-name="queen"><rect class="cls-1" width="180" height="252" rx="12" ry="12"/><text class="cls-2" transform="translate(7.92 26.27)">Q</text><path class="cls-3" d="M36,14v.23c-.21,3.56-5.21,10.25-7,10.25s-6.78-6.69-7-10.25V14a3.5,3.5,0,1,1,7,0,3.5,3.5,0,1,1,7,0Z"/><text class="cls-4" transform="translate(170.66 226.94) rotate(180)">Q</text><path class="cls-3" d="M158,238v-.23c-.21-3.56-5.21-10.25-7-10.25s-6.78,6.69-7,10.25V238a3.5,3.5,0,0,0,7,0,3.5,3.5,0,0,0,7,0Z"/><g id="Queen-5" data-name="Queen"><path class="cls-3" d="M67.55,106.48V147l45-45a22.72,22.72,0,0,0-6.83-12.17A22.67,22.67,0,0,0,112.61,69H67.93a22.77,22.77,0,0,0,6.9,20.83A22.65,22.65,0,0,0,67.55,106.48Z"/><path class="cls-3" d="M113,147.67V106.88L68,151.93a22.72,22.72,0,0,0,6.88,12.41,22.77,22.77,0,0,0-6.9,20.83h44.68a22.66,22.66,0,0,0-6.89-20.83A22.65,22.65,0,0,0,113,147.67Z"/><g id="crown_2" data-name="crown 2"><path class="cls-3" d="M112.9,186.5H67.27v18s11.38-15,22.81,4.85c11.32-19.82,22.7-4.85,22.76-4.85Z"/></g><g id="crown_2-2" data-name="crown 2"><path class="cls-3" d="M67.27,67.45H112.9v-18s-11.38,15-22.82-4.85c-11.31,19.82-22.69,4.85-22.75,4.85Z"/></g><path class="cls-3" d="M96.81,34.39v0a.13.13,0,0,0,0,.06v.07c-.19,2.84-4.72,8.15-6.33,8.15s-6.15-5.31-6.34-8.15v-.18a3.2,3.2,0,0,1,6.34,0,3.2,3.2,0,0,1,6.34,0Z"/><path class="cls-3" d="M83.74,218.61v-.05a.13.13,0,0,0,0-.06v-.07c.19-2.84,4.72-8.15,6.33-8.15s6.15,5.31,6.34,8.15v.18a3.2,3.2,0,0,1-6.34,0,3.2,3.2,0,0,1-6.34,0Z"/></g></g></g></svg>