<svg id="Layer_1" data-name="Layer 1" xmlns="http://www.w3.org/2000/svg" viewBox="0 0 500 500"><title>Spade</title><path d="M49,301.13c0-.63,0-1.27,0-1.91s0-1.45.06-2.18c0-.36,0-.72.05-1.08s0-.85.07-1.28C55.2,192.32,198.83.44,250,.44S444.8,192.32,450.8,294.68c0,.43.06.86.07,1.28s0,.72.05,1.08c0,.73.05,1.46.06,2.18s0,1.28,0,1.91a100.5,100.5,0,0,1-201,0,100.5,100.5,0,0,1-201,0Z"/><path d="M352,465a91.5,91.5,0,0,1-91.49-90.5H260v-125H240v124h-.5A91.51,91.51,0,0,1,148,465v.5H67v34H433v-34H352Z"/></svg>