<svg id="Spades" xmlns="http://www.w3.org/2000/svg" viewBox="0 0 180 252"><defs><style>.cls-1{fill:#fff;}.cls-2{font-size:22px;font-family:Vollkorn-Regular, Vollkorn;}</style></defs><title>Spade-6</title><g id="_6" data-name="6"><rect class="cls-1" width="180" height="252" rx="12" ry="12"/><text class="cls-2" transform="translate(12.87 26.27)">6</text><path d="M22.57,19.78v-.21c.2-3.21,5-9.23,6.71-9.23s6.5,6,6.7,9.23v.21a3.36,3.36,0,0,1-6.71,0,3.37,3.37,0,0,1-6.72,0Z"/><path d="M32.49,24.92a2.86,2.86,0,0,1-2.87-2.84h0V18.16H29v3.89h0a2.88,2.88,0,0,1-2.87,2.87H23.54V26H35V24.93H32.49Z"/><text class="cls-2" transform="translate(167.17 225.51) rotate(180)">6</text><path d="M157.47,232v.2c-.2,3.21-5,9.23-6.71,9.23s-6.5-6-6.7-9.23V232a3.36,3.36,0,0,1,6.71,0,3.37,3.37,0,0,1,6.72,0Z"/><path d="M147.55,226.87a2.86,2.86,0,0,1,2.87,2.84h0v3.92h.63v-3.89h0a2.87,2.87,0,0,1,2.87-2.87v0h2.55v-1.07H145v1.07h2.54Z"/><path d="M36,48.06V47.7a.28.28,0,0,0,0-.09c.45-7.19,11.19-20.67,15-20.67S65.57,40.42,66,47.61a.28.28,0,0,0,0,.09v.36a7.53,7.53,0,0,1-15,0,7.3,7.3,0,0,1-7.52,7.06A7.29,7.29,0,0,1,36,48.06Z"/><path d="M58.17,59.58a6.43,6.43,0,0,1-6.43-6.36h0V44.44H50.3v8.71h0a6.43,6.43,0,0,1-6.43,6.43v0H38.14V62H63.86V59.61H58.17Z"/><path d="M144,210.79v-.36a.28.28,0,0,1,0-.09c-.45-7.19-11.19-20.67-15-20.67s-14.57,13.48-15,20.67a.28.28,0,0,1,0,.09v.36a7.53,7.53,0,0,0,15,0,7.53,7.53,0,0,0,15,0Z"/><path d="M121.83,222.31a6.43,6.43,0,0,0,6.43-6.36h0v-8.78h1.4v8.71h0a6.43,6.43,0,0,0,6.43,6.43v0h5.69v2.39H116.14v-2.39h5.69Z"/><path d="M114,48.06V47.7a.28.28,0,0,0,0-.09c.45-7.19,11.19-20.67,15-20.67s14.57,13.48,15,20.67a.28.28,0,0,0,0,.09v.36a7.53,7.53,0,0,1-15,0,7.53,7.53,0,0,1-15,0Z"/><path d="M136.17,59.58a6.43,6.43,0,0,1-6.43-6.36h0V44.44h-1.4v8.71h0a6.43,6.43,0,0,1-6.43,6.43v0h-5.69V62h25.72V59.61h-5.69Z"/><path d="M66,210.79v-.36a.28.28,0,0,1,0-.09c-.45-7.19-11.19-20.67-15-20.67s-14.57,13.48-15,20.67a.28.28,0,0,1,0,.09v.36a7.53,7.53,0,0,0,15,0,7.53,7.53,0,0,0,15,0Z"/><path d="M43.83,222.31A6.43,6.43,0,0,0,50.26,216h0v-8.78h1.4v8.71h0a6.43,6.43,0,0,0,6.43,6.43v0h5.69v2.39H38.14v-2.39h5.69Z"/><path d="M36,129.79v-.36a.28.28,0,0,0,0-.09c.45-7.19,11.19-20.67,15-20.67s14.57,13.48,15,20.67a.28.28,0,0,0,0,.09v.36a7.53,7.53,0,0,1-15,0,7.53,7.53,0,0,1-15,0Z"/><path d="M58.17,141.31A6.43,6.43,0,0,1,51.74,135h0v-8.78H50.3v8.71h0a6.43,6.43,0,0,1-6.43,6.43v0H38.14v2.39H63.86v-2.39H58.17Z"/><path d="M114,129.79v-.36a.28.28,0,0,0,0-.09c.45-7.19,11.19-20.67,15-20.67s14.57,13.48,15,20.67a.28.28,0,0,0,0,.09v.36a7.53,7.53,0,0,1-15,0,7.53,7.53,0,0,1-15,0Z"/><path d="M136.17,141.31a6.43,6.43,0,0,1-6.43-6.36h0v-8.78h-1.4v8.71h0a6.43,6.43,0,0,1-6.43,6.43v0h-5.69v2.39h25.72v-2.39h-5.69Z"/></g></svg>