<svg id="Spades" xmlns="http://www.w3.org/2000/svg" viewBox="0 0 180 252"><defs><style>.cls-1{fill:#fff;}.cls-2{font-size:22px;font-family:Vollkorn-Regular, Vollkorn;}</style></defs><title>Spade-2</title><g id="_2" data-name="2"><rect class="cls-1" width="180" height="252" rx="12" ry="12"/><text class="cls-2" transform="translate(12.19 26.27)">2</text><path d="M22.57,19.78v-.21c.2-3.21,5-9.23,6.71-9.23s6.5,6,6.7,9.23v.21a3.36,3.36,0,0,1-6.71,0,3.37,3.37,0,0,1-6.72,0Z"/><path d="M32.49,24.92a2.86,2.86,0,0,1-2.87-2.84h0V18.16H29v3.89h0a2.88,2.88,0,0,1-2.87,2.87H23.54V26H35V24.93H32.49Z"/><text class="cls-2" transform="translate(167.85 225.68) rotate(180)">2</text><path d="M157.47,232.17v.21c-.2,3.21-5,9.23-6.71,9.23s-6.5-6-6.7-9.23v-.21a3.36,3.36,0,0,1,6.71,0,3.37,3.37,0,0,1,6.72,0Z"/><path d="M147.55,227a2.86,2.86,0,0,1,2.87,2.84h0v3.92h.63V229.9h0A2.88,2.88,0,0,1,154,227h2.55V226H145V227h2.54Z"/><path d="M75,48.06V47.7a.28.28,0,0,0,0-.09c.45-7.19,11.19-20.67,15-20.67s14.57,13.48,15,20.67a.28.28,0,0,0,0,.09v.36a7.53,7.53,0,0,1-15,0,7.53,7.53,0,0,1-15,0Z"/><path d="M97.17,59.58a6.43,6.43,0,0,1-6.43-6.36h0V44.44H89.3v8.71h0a6.43,6.43,0,0,1-6.43,6.43v0H77.14V62h25.72V59.61H97.17Z"/><path d="M105,203.87v.37a.28.28,0,0,0,0,.09C104.57,211.52,93.83,225,90,225s-14.57-13.48-15-20.67a.28.28,0,0,0,0-.09v-.37a7.53,7.53,0,0,1,15,0,7.53,7.53,0,0,1,15,0Z"/><path d="M82.83,192.36a6.43,6.43,0,0,1,6.43,6.36h0v8.78h1.4v-8.71h0a6.43,6.43,0,0,1,6.43-6.43v0h5.69v-2.39H77.14v2.39h5.69Z"/></g></svg>