<svg id="Spades" xmlns="http://www.w3.org/2000/svg" viewBox="0 0 180 252"><defs><style>.cls-1{fill:#fff;}.cls-2{font-size:22px;font-family:Vollkorn-Regular, Vollkorn;}</style></defs><title>Spade-queen</title><g id="queen"><rect class="cls-1" width="180" height="252" rx="12" ry="12"/><text class="cls-2" transform="translate(7.92 26.27)"><tspan xml:space="preserve">Q      </tspan></text><path d="M22.57,19.78v-.21c.2-3.21,5-9.23,6.71-9.23s6.5,6,6.7,9.23v.21a3.36,3.36,0,0,1-6.71,0,3.37,3.37,0,0,1-6.72,0Z"/><path d="M32.49,24.92a2.86,2.86,0,0,1-2.87-2.84h0V18.16H29v3.89h0a2.88,2.88,0,0,1-2.87,2.87H23.54V26H35V24.93H32.49Z"/><text class="cls-2" transform="translate(172.12 225.51) rotate(180)">Q</text><path d="M157.47,232v.2c-.2,3.21-5,9.23-6.71,9.23s-6.5-6-6.7-9.23V232a3.36,3.36,0,0,1,6.71,0,3.37,3.37,0,0,1,6.72,0Z"/><path d="M147.55,226.87a2.86,2.86,0,0,1,2.87,2.84h0v3.92h.63v-3.89h0a2.87,2.87,0,0,1,2.87-2.87v0h2.55v-1.07H145v1.07h2.54Z"/><g id="Queen-2" data-name="Queen"><path d="M67.25,103.81v41l45.59-45.59a22.94,22.94,0,0,0-6.92-12.33A22.93,22.93,0,0,0,113.3,70a23.52,23.52,0,0,0-.39-4.23H67.64A23.52,23.52,0,0,0,67.25,70a23,23,0,0,0,7.37,16.88A23,23,0,0,0,67.25,103.81Z"/><path d="M113.3,145.54V104.22L67.66,149.86a23.06,23.06,0,0,0,7,12.57,23,23,0,0,0-7.37,16.88,23.52,23.52,0,0,0,.39,4.23h45.27a23.52,23.52,0,0,0,.39-4.23,22.93,22.93,0,0,0-7.38-16.88A23,23,0,0,0,113.3,145.54Z"/><g id="crown_2" data-name="crown 2"><path d="M113.2,184.89H67v18.2S78.5,187.92,90.08,208c11.47-20.08,23-4.91,23.06-4.91Z"/></g><g id="crown_2-2" data-name="crown 2"><path d="M67,64.27H113.2V46.07s-11.53,15.17-23.12-4.91c-11.46,20.08-23,4.91-23,4.91Z"/></g><path d="M85.23,35.19V35c.16-2.47,3.91-7.1,5.24-7.1s5.08,4.63,5.24,7.1v.15a2.63,2.63,0,0,1-5.25,0,2.63,2.63,0,0,1-5.24,0Z"/><path d="M93,39.15A2.23,2.23,0,0,1,90.73,37h0V34h-.49v3h0A2.22,2.22,0,0,1,88,39.15H86V40h9v-.82H93Z"/><path d="M95.33,213.74v.16c-.15,2.47-3.9,7.1-5.24,7.1s-5.08-4.63-5.24-7.1v-.16a2.63,2.63,0,0,1,5.24,0,2.63,2.63,0,0,1,5.25,0Z"/><path d="M87.58,209.79A2.24,2.24,0,0,1,89.83,212h0v3h.49v-3h0a2.22,2.22,0,0,1,2.24-2.21h2V209h-9v.82h2Z"/></g></g></svg>