<svg id="Spades" xmlns="http://www.w3.org/2000/svg" viewBox="0 0 180 252"><defs><style>.cls-1{fill:#fff;}.cls-2{font-size:22px;font-family:Vollkorn-Regular, Vollkorn;}.cls-3,.cls-4{fill:none;stroke:#fff;stroke-linecap:round;stroke-linejoin:round;stroke-width:3px;}.cls-4{stroke-dasharray:4.99 9.98;}</style></defs><title>Spade-ace</title><g id="ace"><rect class="cls-1" width="180" height="252" rx="12" ry="12"/><text class="cls-2" transform="translate(8 26.27)">A</text><path d="M22.57,19.78v-.21c.2-3.21,5-9.23,6.71-9.23s6.5,6,6.7,9.23v.21a3.36,3.36,0,0,1-6.71,0,3.37,3.37,0,0,1-6.72,0Z"/><path d="M32.49,24.92a2.86,2.86,0,0,1-2.87-2.84h0V18.16H29v3.89h0a2.88,2.88,0,0,1-2.87,2.87H23.54V26H35V24.93H32.49Z"/><text class="cls-2" transform="translate(172.04 225.51) rotate(180)">A</text><path d="M157.47,232v.2c-.2,3.21-5,9.23-6.71,9.23s-6.5-6-6.7-9.23V232a3.36,3.36,0,0,1,6.71,0,3.37,3.37,0,0,1,6.72,0Z"/><path d="M147.55,226.87a2.86,2.86,0,0,1,2.87,2.84h0v3.92h.63v-3.89h0a2.87,2.87,0,0,1,2.87-2.87v0h2.55v-1.07H145v1.07h2.54Z"/><path d="M115.74,179.9a22.93,22.93,0,0,1-23.09-22.49h-.13V126.35h-5v30.81h-.13A22.92,22.92,0,0,1,64.26,179.9V180H43.82v8.45h92.36V180H115.74Z"/><path d="M36,139.18v-.47c0-.18,0-.36,0-.55v-.26c0-.11,0-.21,0-.32,1.62-25.43,40.2-73.11,54-73.11s52.33,47.68,53.95,73.11c0,.11,0,.21,0,.32v.26c0,.19,0,.37,0,.55v.47c0,13.79-12.09,25-27,25s-27-11.18-27-25c0,13.79-12.09,25-27,25S36,153,36,139.18Z"/><path class="cls-1" d="M77,120.31a.49.49,0,0,1,0-.12V120s0-.06,0-.08c.39-6.13,9.69-17.62,13-17.62s12.61,11.49,13,17.62c0,0,0,0,0,.08v.19a.49.49,0,0,1,0,.12,6.53,6.53,0,0,1-13,0,6.53,6.53,0,0,1-13,0Z"/><path class="cls-3" d="M43.89,135.55v-.41c0-.15,0-.3,0-.46v-.23c0-.09,0-.18,0-.27C45.31,112.46,78.26,71.75,90,71.75s44.69,40.71,46.07,62.43c0,.09,0,.18,0,.27v.23c0,.16,0,.31,0,.46v.41c0,11.78-10.32,21.32-23.05,21.32S90,147.33,90,135.55c0,11.78-10.32,21.32-23.06,21.32S43.89,147.33,43.89,135.55Z"/><path class="cls-3" d="M90.29,128.33a10.72,10.72,0,0,1-.29-2.48,10.72,10.72,0,0,1-.29,2.48"/><path class="cls-4" d="M83.69,135.91a13.28,13.28,0,0,1-6.22,1.52c-6.91,0-12.52-5.18-12.52-11.58v-.22a2.09,2.09,0,0,1,0-.25v-.13a.76.76,0,0,0,0-.15c.75-11.79,18.65-33.91,25-33.91s24.28,22.12,25,33.91a.76.76,0,0,0,0,.15v.13a2.09,2.09,0,0,1,0,.25v.22c0,6.4-5.61,11.58-12.52,11.58a12.85,12.85,0,0,1-10.06-4.67"/></g></svg>