<svg id="Spades" xmlns="http://www.w3.org/2000/svg" viewBox="0 0 180 252"><defs><style>.cls-1{fill:#fff;}.cls-2{font-size:22px;font-family:Vollkorn-Regular, Vollkorn;}</style></defs><title>Spade-king</title><g id="king"><rect class="cls-1" width="180" height="252" rx="12" ry="12"/><text class="cls-2" transform="translate(9.08 26.27)"><tspan xml:space="preserve">K        </tspan></text><path d="M22.57,19.78v-.21c.2-3.21,5-9.23,6.71-9.23s6.5,6,6.7,9.23v.21a3.36,3.36,0,0,1-6.71,0,3.37,3.37,0,0,1-6.72,0Z"/><path d="M32.49,24.92a2.86,2.86,0,0,1-2.87-2.84h0V18.16H29v3.89h0a2.88,2.88,0,0,1-2.87,2.87H23.54V26H35V24.93H32.49Z"/><text class="cls-2" transform="translate(170.96 225.51) rotate(180)">K </text><path d="M157.47,232v.2c-.2,3.21-5,9.23-6.71,9.23s-6.5-6-6.7-9.23V232a3.36,3.36,0,0,1,6.71,0,3.37,3.37,0,0,1,6.72,0Z"/><path d="M147.55,226.87a2.86,2.86,0,0,1,2.87,2.84h0v3.92h.63v-3.89h0a2.87,2.87,0,0,1,2.87-2.87v0h2.55v-1.07H145v1.07h2.54Z"/><g id="King-2" data-name="King"><g id="crown_1" data-name="crown 1"><path d="M67.62,64.64h45.64v-18s-11.38,15-22.82-4.85c-11.32,19.82-22.7,4.85-22.76,4.85Z"/><circle cx="67.74" cy="46.67" r="2.99"/><circle cx="113.26" cy="46.67" r="2.99"/></g><path d="M67.38,104.33v41.21l45.78-45.78a23.13,23.13,0,0,0-7-12.38,23,23,0,0,0,7.41-16.95,22.75,22.75,0,0,0-.4-4.24H67.77a23.63,23.63,0,0,0-.39,4.24,23,23,0,0,0,7.4,16.95A23,23,0,0,0,67.38,104.33Z"/><path d="M113.62,146.24V104.75L67.79,150.57a23.11,23.11,0,0,0,7,12.62,23.07,23.07,0,0,0-7.4,17,23.6,23.6,0,0,0,.39,4.23h45.45a22.72,22.72,0,0,0,.4-4.23,23,23,0,0,0-7.41-17A23,23,0,0,0,113.62,146.24Z"/><g id="crown_1-2" data-name="crown 1"><path d="M113.38,186.14H67.74v18s11.38-15,22.82,4.85c11.32-19.83,22.7-4.85,22.76-4.85Z"/><circle cx="113.26" cy="204.11" r="2.99"/><circle cx="67.74" cy="204.11" r="2.99"/></g><path d="M85.43,36.22v-.15c.16-2.48,3.92-7.13,5.27-7.13s5.1,4.65,5.26,7.13v.15a2.64,2.64,0,0,1-5.26,0,2.64,2.64,0,0,1-5.27,0Z"/><path d="M93.2,40.19A2.24,2.24,0,0,1,91,38h0V35h-.49v3h0a2.23,2.23,0,0,1-2.25,2.21v0h-2V41h9v-.82h-2Z"/><path d="M95.57,214.72v.15c-.16,2.48-3.92,7.13-5.27,7.13s-5.1-4.65-5.26-7.13v-.15a2.64,2.64,0,0,1,5.26,0,2.64,2.64,0,0,1,5.27,0Z"/><path d="M87.8,210.75a2.23,2.23,0,0,1,2.25,2.19h0v3h.49v-3h0a2.23,2.23,0,0,1,2.25-2.21v0h2v-.82h-9v.82h2Z"/></g></g></svg>