<svg id="Spades" xmlns="http://www.w3.org/2000/svg" viewBox="0 0 180 252"><defs><style>.cls-1{fill:#fff;}.cls-2{font-size:22px;font-family:Vollkorn-Regular, Vollkorn;}</style></defs><title>Spade-jack</title><g id="jack"><rect class="cls-1" width="180" height="252" rx="12" ry="12"/><text class="cls-2" transform="translate(16.76 26.27)"><tspan xml:space="preserve">J        </tspan></text><path d="M22.57,19.78v-.21c.2-3.21,5-9.23,6.71-9.23s6.5,6,6.7,9.23v.21a3.36,3.36,0,0,1-6.71,0,3.37,3.37,0,0,1-6.72,0Z"/><path d="M32.49,24.92a2.86,2.86,0,0,1-2.87-2.84h0V18.16H29v3.89h0a2.88,2.88,0,0,1-2.87,2.87H23.54V26H35V24.93H32.49Z"/><text class="cls-2" transform="translate(163.28 225.51) rotate(180)">J</text><path d="M157.47,232v.2c-.2,3.21-5,9.23-6.71,9.23s-6.5-6-6.7-9.23V232a3.36,3.36,0,0,1,6.71,0,3.37,3.37,0,0,1,6.72,0Z"/><path d="M147.55,226.87a2.86,2.86,0,0,1,2.87,2.84h0v3.92h.63v-3.89h0a2.87,2.87,0,0,1,2.87-2.87v0h2.55v-1.07H145v1.07h2.54Z"/><g id="Jack-2" data-name="Jack"><g id="crown_3" data-name="crown 3"><path d="M67,64.84h45.81V60s-11.42,1.8-22.91-18.1C78.54,61.84,67.06,60,67,60Z"/></g><g id="crown_3-2" data-name="crown 3"><path d="M67,184.5h45.81v4.81s-11.42-1.8-22.91,18.1c-11.36-19.9-22.84-18.1-22.9-18.1Z"/></g><path d="M67.38,104v40.65l45.17-45.16a22.78,22.78,0,0,0-6.86-12.22A22.7,22.7,0,0,0,113,70.55a23,23,0,0,0-.39-4.18H67.77a23,23,0,0,0-.39,4.18,22.7,22.7,0,0,0,7.31,16.72A22.73,22.73,0,0,0,67.38,104Z"/><path d="M113,145.34V104.41L67.79,149.62a22.7,22.7,0,0,0,6.9,12.45,22.73,22.73,0,0,0-7.31,16.73,23,23,0,0,0,.39,4.18h44.84a23,23,0,0,0,.39-4.18,22.73,22.73,0,0,0-7.31-16.73A22.7,22.7,0,0,0,113,145.34Z"/><path d="M84.81,36v-.15c.16-2.45,3.87-7,5.19-7s5,4.59,5.19,7V36A2.6,2.6,0,0,1,90,36a2.6,2.6,0,0,1-5.19,0Z"/><path d="M92.48,40a2.2,2.2,0,0,1-2.22-2.16h0v-3h-.48v3h0A2.21,2.21,0,0,1,87.52,40h-2v.81h8.88V40h-2Z"/><path d="M95.19,212.91v.15c-.16,2.45-3.87,7-5.19,7s-5-4.58-5.19-7v-.15a2.6,2.6,0,0,1,5.19,0,2.6,2.6,0,0,1,5.19,0Z"/><path d="M87.52,209a2.2,2.2,0,0,1,2.22,2.16h0v3h.48v-3h0A2.21,2.21,0,0,1,92.48,209h2v-.82H85.56V209h2Z"/></g></g></svg>