<svg xmlns="http://www.w3.org/2000/svg" viewBox="0 0 180 252"><defs><style>.cls-1{fill:#fff;}.cls-2{font-size:22px;}.cls-2,.cls-3{font-family:Vollkorn-Regular, Vollkorn;}.cls-3{font-size:20px;}</style></defs><title>Club-10</title><g id="Clubs"><g id="_10-3" data-name="10"><rect class="cls-1" width="180" height="252" rx="12" ry="12"/><text class="cls-2" transform="translate(2.24 26.27)">10</text><path d="M32.06,25a2.71,2.71,0,0,1-2.71-2.68h0V18.6h-.6v3.67h0A2.71,2.71,0,0,1,26,25h-2.4v1H34.46V25h-2.4Z"/><circle cx="32.3" cy="18.95" r="3.7"/><circle cx="29.04" cy="15.25" r="3.7"/><circle cx="25.78" cy="18.95" r="3.7"/><text class="cls-3" transform="translate(175.82 226.94) rotate(180)">10</text><path d="M154.06,227.8a2.71,2.71,0,0,0-2.71,2.68h0v3.7h-.6v-3.67h0A2.71,2.71,0,0,0,148,227.8v0h-2.4v-1h10.84v1h-2.4Z"/><circle cx="154.3" cy="233.82" r="3.7"/><circle cx="151.04" cy="237.52" r="3.7"/><circle cx="147.78" cy="233.82" r="3.7"/><path d="M60.52,60.45a6.74,6.74,0,0,1-6.74-6.67h0V44.56H52.26V53.7h0a6.75,6.75,0,0,1-6.75,6.75v0h-6V63h27V60.49h-6Z"/><circle cx="61.11" cy="45.44" r="9.22"/><circle cx="53" cy="36.22" r="9.22"/><circle cx="44.89" cy="45.44" r="9.22"/><path d="M134.52,60.45a6.74,6.74,0,0,1-6.74-6.67h0V44.56h-1.48V53.7h0a6.75,6.75,0,0,1-6.75,6.75v0h-6V63h27V60.49h-6Z"/><circle cx="135.11" cy="45.44" r="9.22"/><circle cx="127" cy="36.22" r="9.22"/><circle cx="118.89" cy="45.44" r="9.22"/><path d="M61.52,191.55a6.74,6.74,0,0,0-6.74,6.67h0v9.22H53.26V198.3h0a6.75,6.75,0,0,0-6.75-6.75v0h-6V189h27v2.51h-6Z"/><circle cx="62.11" cy="206.56" r="9.22"/><circle cx="54" cy="215.78" r="9.22"/><circle cx="45.89" cy="206.56" r="9.22"/><path d="M133.52,191.55a6.74,6.74,0,0,0-6.74,6.67h0v9.22h-1.48V198.3h0a6.75,6.75,0,0,0-6.75-6.75v0h-6V189h27v2.51h-6Z"/><circle cx="134.11" cy="206.56" r="9.22"/><circle cx="126" cy="215.78" r="9.22"/><circle cx="117.89" cy="206.56" r="9.22"/><path d="M60.52,123.45a6.74,6.74,0,0,1-6.74-6.67h0v-9.22H52.26v9.14h0a6.75,6.75,0,0,1-6.75,6.75v0h-6V126h27v-2.51h-6Z"/><circle cx="61.11" cy="108.44" r="9.22"/><circle cx="53" cy="99.22" r="9.22"/><circle cx="44.89" cy="108.44" r="9.22"/><path d="M133.52,123.45a6.74,6.74,0,0,1-6.74-6.67h0v-9.22h-1.48v9.14h0a6.75,6.75,0,0,1-6.75,6.75v0h-6V126h27v-2.51h-6Z"/><circle cx="134.11" cy="108.44" r="9.22"/><circle cx="126" cy="99.22" r="9.22"/><circle cx="117.89" cy="108.44" r="9.22"/><path d="M97.52,91.45a6.74,6.74,0,0,1-6.74-6.67h0V75.56H89.26V84.7h0a6.75,6.75,0,0,1-6.75,6.75v0h-6V94h27V91.49h-6Z"/><circle cx="98.11" cy="76.44" r="9.22"/><circle cx="90" cy="67.22" r="9.22"/><circle cx="81.89" cy="76.44" r="9.22"/><path d="M60.52,128.55a6.74,6.74,0,0,0-6.74,6.67h0v9.22H52.26V135.3h0a6.75,6.75,0,0,0-6.75-6.75v0h-6V126h27v2.51h-6Z"/><circle cx="61.11" cy="143.56" r="9.22"/><circle cx="53" cy="152.78" r="9.22"/><circle cx="44.89" cy="143.56" r="9.22"/><path d="M133.52,128.55a6.74,6.74,0,0,0-6.74,6.67h0v9.22h-1.48V135.3h0a6.75,6.75,0,0,0-6.75-6.75v0h-6V126h27v2.51h-6Z"/><circle cx="134.11" cy="143.56" r="9.22"/><circle cx="126" cy="152.78" r="9.22"/><circle cx="117.89" cy="143.56" r="9.22"/><path d="M98.52,160.55a6.74,6.74,0,0,0-6.74,6.67h0v9.22H90.26V167.3h0a6.75,6.75,0,0,0-6.75-6.75v0h-6V158h27v2.51h-6Z"/><circle cx="99.11" cy="175.56" r="9.22"/><circle cx="91" cy="184.78" r="9.22"/><circle cx="82.89" cy="175.56" r="9.22"/></g></g></svg>