<svg xmlns="http://www.w3.org/2000/svg" viewBox="0 0 180 252"><defs><style>.cls-1{fill:#fff;}.cls-2{font-size:22px;}.cls-2,.cls-3{font-family:Vollkorn-Regular, Vollkorn;}.cls-3{font-size:20px;}</style></defs><title>Club-king</title><g id="Clubs"><g id="king-3" data-name="king"><rect class="cls-1" width="180" height="252" rx="12" ry="12"/><text class="cls-2" transform="translate(9.08 26.27)">K</text><path d="M32.06,25a2.71,2.71,0,0,1-2.71-2.68h0V18.6h-.6v3.67h0A2.71,2.71,0,0,1,26,25h-2.4v1H34.46V25h-2.4Z"/><circle cx="32.3" cy="18.95" r="3.7"/><circle cx="29.04" cy="15.25" r="3.7"/><circle cx="25.78" cy="18.95" r="3.7"/><text class="cls-3" transform="translate(169.6 226.94) rotate(180)">K</text><path d="M154.06,227.8a2.71,2.71,0,0,0-2.71,2.68h0v3.7h-.6v-3.67h0A2.71,2.71,0,0,0,148,227.8v0h-2.4v-1h10.84v1h-2.4Z"/><circle cx="154.3" cy="233.82" r="3.7"/><circle cx="151.04" cy="237.52" r="3.7"/><circle cx="147.78" cy="233.82" r="3.7"/><g id="King-4" data-name="King"><g id="crown_1" data-name="crown 1"><path d="M67.85,66.14H113V48.35s-11.26,14.83-22.59-4.8C79.23,63.18,68,48.35,67.91,48.35Z"/><circle cx="67.97" cy="48.35" r="2.97"/><circle cx="113.03" cy="48.35" r="2.97"/></g><path d="M67.6,105.45v40.8l45.34-45.33a23,23,0,0,0-6.88-12.26,22.81,22.81,0,0,0,7.33-16.79,23.16,23.16,0,0,0-.39-4.19H68a23.16,23.16,0,0,0-.39,4.19,22.82,22.82,0,0,0,7.34,16.79A22.86,22.86,0,0,0,67.6,105.45Z"/><path d="M113.39,147V105.86L68,151.24a22.92,22.92,0,0,0,6.93,12.5,22.82,22.82,0,0,0-7.34,16.79,23.16,23.16,0,0,0,.39,4.19h45a23.16,23.16,0,0,0,.39-4.19,22.81,22.81,0,0,0-7.33-16.79A22.85,22.85,0,0,0,113.39,147Z"/><g id="crown_1-2" data-name="crown 1"><path d="M113.15,186.46H68v17.79s11.26-14.82,22.59,4.8c11.21-19.62,22.47-4.8,22.53-4.8Z"/><circle cx="113.03" cy="204.25" r="2.97"/><circle cx="67.97" cy="204.25" r="2.97"/></g><path d="M93.19,41.92a2.26,2.26,0,0,1-2.27-2.25h0v-3.1h-.49v3.08h0a2.27,2.27,0,0,1-2.27,2.27h-2v.85H95.2v-.85h-2Z"/><circle cx="93.39" cy="36.87" r="3.1"/><circle cx="90.66" cy="33.77" r="3.1"/><circle cx="87.93" cy="36.87" r="3.1"/><path d="M88.13,210.73A2.28,2.28,0,0,1,90.4,213h0v3.1h.49V213h0a2.27,2.27,0,0,1,2.27-2.27h2v-.84H86.12v.84h2Z"/><circle cx="87.93" cy="215.78" r="3.1"/><circle cx="90.66" cy="218.88" r="3.1"/><circle cx="93.39" cy="215.78" r="3.1"/></g></g></g></svg>