<svg xmlns="http://www.w3.org/2000/svg" viewBox="0 0 180 252"><defs><style>.cls-1{fill:#fff;}.cls-2{font-size:22px;}.cls-2,.cls-3{font-family:Vollkorn-Regular, Vollkorn;}.cls-3{font-size:20px;}</style></defs><title>Club-jack</title><g id="Clubs"><g id="jack-3" data-name="jack"><rect class="cls-1" width="180" height="252" rx="12" ry="12"/><text class="cls-2" transform="translate(16.76 26.27)">J</text><path d="M32.06,25a2.71,2.71,0,0,1-2.71-2.68h0V18.6h-.6v3.67h0A2.71,2.71,0,0,1,26,25h-2.4v1H34.46V25h-2.4Z"/><circle cx="32.3" cy="18.95" r="3.7"/><circle cx="29.04" cy="15.25" r="3.7"/><circle cx="25.78" cy="18.95" r="3.7"/><text class="cls-3" transform="translate(162.62 226.94) rotate(180)">J</text><path d="M154.06,227.8a2.71,2.71,0,0,0-2.71,2.68h0v3.7h-.6v-3.67h0A2.71,2.71,0,0,0,148,227.8v0h-2.4v-1h10.84v1h-2.4Z"/><circle cx="154.3" cy="233.82" r="3.7"/><circle cx="151.04" cy="237.52" r="3.7"/><circle cx="147.78" cy="233.82" r="3.7"/><g id="Jack-4" data-name="Jack"><g id="crown_3" data-name="crown 3"><path d="M67,66.76h45.81V62s-11.42,1.8-22.91-18.1C78.54,63.75,67.06,62,67,62Z"/></g><g id="crown_3-2" data-name="crown 3"><path d="M67,186.41h45.81v4.81s-11.42-1.8-22.91,18.1c-11.36-19.9-22.84-18.1-22.9-18.1Z"/></g><path d="M67.38,105.91v40.65l45.17-45.16a22.72,22.72,0,0,0-6.86-12.21A22.73,22.73,0,0,0,113,72.46a23,23,0,0,0-.39-4.18H67.77a23,23,0,0,0-.39,4.18,22.73,22.73,0,0,0,7.31,16.73A22.7,22.7,0,0,0,67.38,105.91Z"/><path d="M113,147.26V106.32L67.79,151.53A22.7,22.7,0,0,0,74.69,164a22.73,22.73,0,0,0-7.31,16.73,23,23,0,0,0,.39,4.18h44.84a23,23,0,0,0,.39-4.18A22.73,22.73,0,0,0,105.69,164,22.7,22.7,0,0,0,113,147.26Z"/><path d="M92.48,42.23A2.27,2.27,0,0,1,90.22,40h0V36.9h-.49V40h0a2.26,2.26,0,0,1-2.26,2.26h-2v.84h9v-.84h-2Z"/><circle cx="92.68" cy="37.2" r="3.09"/><circle cx="89.96" cy="34.11" r="3.09"/><circle cx="87.24" cy="37.2" r="3.09"/><path d="M87.44,210.42a2.26,2.26,0,0,1,2.26,2.24h0v3.09h.49v-3.07h0a2.26,2.26,0,0,1,2.26-2.26h2v-.84h-9v.84h2Z"/><circle cx="87.24" cy="215.45" r="3.09"/><circle cx="89.96" cy="218.54" r="3.09"/><circle cx="92.68" cy="215.45" r="3.09"/></g></g></g></svg>