<svg xmlns="http://www.w3.org/2000/svg" viewBox="0 0 180 252"><defs><style>.cls-1{fill:#fff;}.cls-2{font-size:22px;}.cls-2,.cls-3{font-family:Vollkorn-Regular, Vollkorn;}.cls-3{font-size:20px;}</style></defs><title>Club-queen</title><g id="Clubs"><g id="queen-3" data-name="queen"><rect class="cls-1" width="180" height="252" rx="12" ry="12"/><text class="cls-2" transform="translate(7.92 26.27)">Q</text><path d="M32.06,25a2.71,2.71,0,0,1-2.71-2.68h0V18.6h-.6v3.67h0A2.71,2.71,0,0,1,26,25h-2.4v1H34.46V25h-2.4Z"/><circle cx="32.3" cy="18.95" r="3.7"/><circle cx="29.04" cy="15.25" r="3.7"/><circle cx="25.78" cy="18.95" r="3.7"/><text class="cls-3" transform="translate(170.66 226.94) rotate(180)">Q</text><path d="M154.06,227.8a2.71,2.71,0,0,0-2.71,2.68h0v3.7h-.6v-3.67h0A2.71,2.71,0,0,0,148,227.8v0h-2.4v-1h10.84v1h-2.4Z"/><circle cx="154.3" cy="233.82" r="3.7"/><circle cx="151.04" cy="237.52" r="3.7"/><circle cx="147.78" cy="233.82" r="3.7"/><g id="Queen-4" data-name="Queen"><path d="M67.38,105.83v40.81l45.34-45.34A23,23,0,0,0,105.84,89a22.81,22.81,0,0,0,7.33-16.79,23.35,23.35,0,0,0-.39-4.2h-45a22.48,22.48,0,0,0-.39,4.2A22.81,22.81,0,0,0,74.71,89,22.85,22.85,0,0,0,67.38,105.83Z"/><path d="M113.17,147.34v-41.1L67.79,151.63a22.87,22.87,0,0,0,6.92,12.5,22.81,22.81,0,0,0-7.33,16.79,22.32,22.32,0,0,0,.39,4.2h45a23.18,23.18,0,0,0,.39-4.2,22.81,22.81,0,0,0-7.33-16.79A22.83,22.83,0,0,0,113.17,147.34Z"/><g id="crown_2" data-name="crown 2"><path d="M113.07,186.46h-46v18.1s11.46-15.08,23,4.89c11.4-20,22.87-4.89,22.93-4.89Z"/></g><g id="crown_2-2" data-name="crown 2"><path d="M67.1,66.52h46V48.42s-11.46,15.08-23-4.89c-11.4,20-22.86,4.89-22.92,4.89Z"/></g><path d="M92.58,41.9a2.26,2.26,0,0,1-2.27-2.24h0v-3.1H89.8v3.07h0a2.27,2.27,0,0,1-2.28,2.27v0h-2v.84h9.09v-.84h-2Z"/><circle cx="92.78" cy="36.85" r="3.1"/><circle cx="90.05" cy="33.75" r="3.1"/><circle cx="87.32" cy="36.85" r="3.1"/><path d="M87.51,210.75A2.26,2.26,0,0,1,89.78,213h0v3.1h.49V213h0a2.26,2.26,0,0,1,2.27-2.27v0h2v-.84H85.5v.84h2Z"/><circle cx="87.32" cy="215.8" r="3.1"/><circle cx="90.05" cy="218.9" r="3.1"/><circle cx="92.78" cy="215.8" r="3.1"/></g></g></g></svg>