<svg xmlns="http://www.w3.org/2000/svg" viewBox="0 0 180 252"><defs><style>.cls-1{fill:#fff;}.cls-2{font-size:22px;}.cls-2,.cls-3{font-family:Vollkorn-Regular, Vollkorn;}.cls-3{font-size:20px;}.cls-4,.cls-5,.cls-6,.cls-7{fill:none;stroke:#fff;stroke-miterlimit:10;stroke-width:3px;}.cls-5{stroke-dasharray:4.8 9.61;}.cls-6{stroke-dasharray:4.61 9.21;}.cls-7{stroke-dasharray:4.8 9.61;}</style></defs><title>Club-ace</title><g id="Clubs"><g id="Ace-3" data-name="Ace"><rect class="cls-1" width="180" height="252" rx="12" ry="12"/><text class="cls-2" transform="translate(8.51 26.27)">A</text><path d="M32.06,25a2.71,2.71,0,0,1-2.71-2.68h0V18.6h-.6v3.67h0A2.71,2.71,0,0,1,26,25h-2.4v1H34.46V25h-2.4Z"/><circle cx="32.3" cy="18.95" r="3.7"/><circle cx="29.04" cy="15.25" r="3.7"/><circle cx="25.78" cy="18.95" r="3.7"/><text class="cls-3" transform="translate(170.12 226.94) rotate(180)">A</text><path d="M154.06,227.8a2.71,2.71,0,0,0-2.71,2.68h0v3.7h-.6v-3.67h0A2.71,2.71,0,0,0,148,227.8v0h-2.4v-1h10.84v1h-2.4Z"/><circle cx="154.3" cy="233.82" r="3.7"/><circle cx="151.04" cy="237.52" r="3.7"/><circle cx="147.78" cy="233.82" r="3.7"/><path d="M113,173.66a20.68,20.68,0,0,1-20.67-20.45h-.12V125H87.65v28h-.12a20.67,20.67,0,0,1-20.67,20.67v.11H48.56v7.68h82.69v-7.68H113Z"/><path d="M143,127.68a28.24,28.24,0,0,1-53.09,13.43A28.25,28.25,0,1,1,61.66,99.64v-.2a28.25,28.25,0,1,1,56.49,0v.2A28.24,28.24,0,0,1,143,127.68Z"/><path class="cls-4" d="M134.49,125.42a23.72,23.72,0,0,1-44.58,11.27,23.72,23.72,0,1,1-23.72-34.82v-.17a23.72,23.72,0,1,1,47.43,0v.17A23.72,23.72,0,0,1,134.49,125.42Z"/><path class="cls-4" d="M91.25,132.88a16,16,0,0,1-1.34-2.11,17.17,17.17,0,0,1-1.35,2.11"/><path class="cls-5" d="M81.07,138.71A17.65,17.65,0,0,1,65.38,107.2"/><path class="cls-4" d="M69.8,105.33a18.12,18.12,0,0,1,2.46-.47v-.12a16.75,16.75,0,0,1,.16-2.37"/><path class="cls-6" d="M75.93,94a17.65,17.65,0,0,1,30.26,4"/><path class="cls-4" d="M107.39,102.37a16.75,16.75,0,0,1,.16,2.37v.12a18.12,18.12,0,0,1,2.46.47"/><path class="cls-7" d="M118.17,110.17a17.65,17.65,0,0,1-23.58,26.14"/><path class="cls-1" d="M108.92,118.62a10.11,10.11,0,0,1-19,4.81,10.12,10.12,0,1,1-10.12-14.86v-.07a10.12,10.12,0,0,1,20.23,0v.07A10.12,10.12,0,0,1,108.92,118.62Z"/></g></g></svg>