<svg xmlns="http://www.w3.org/2000/svg" viewBox="0 0 180 252"><defs><style>.cls-1{fill:#fff;}.cls-2{font-size:22px;}.cls-2,.cls-3,.cls-4{fill:red;}.cls-2,.cls-4{font-family:Vollkorn-Regular, Vollkorn;}.cls-4{font-size:20px;}</style></defs><title>Diamond-king</title><g id="Diamonds"><g id="king-2" data-name="king"><rect class="cls-1" width="180" height="252" rx="12" ry="12"/><text class="cls-2" transform="translate(9.08 26.27)">K</text><polygon class="cls-3" points="25 18 29 10 33 18 29 26 25 18"/><text class="cls-4" transform="translate(169.6 226.94) rotate(180)">K</text><polygon class="cls-3" points="147 234 151 226 155 234 151 242 147 234"/><g id="King-3" data-name="King"><g id="crown_1" data-name="crown 1"><path class="cls-3" d="M67.85,66.25H113V48.46s-11.26,14.82-22.59-4.81C79.23,63.28,68,48.46,67.91,48.46Z"/><circle class="cls-3" cx="67.97" cy="48.46" r="2.97"/><circle class="cls-3" cx="113.03" cy="48.46" r="2.97"/></g><path class="cls-3" d="M67.6,105.56v40.8L112.94,101a22.92,22.92,0,0,0-6.88-12.26A22.81,22.81,0,0,0,113.39,72a23.35,23.35,0,0,0-.39-4.2H68A23.35,23.35,0,0,0,67.6,72a22.82,22.82,0,0,0,7.34,16.79A22.82,22.82,0,0,0,67.6,105.56Z"/><path class="cls-3" d="M113.39,147.05V106L68,151.35a22.86,22.86,0,0,0,6.93,12.49,22.86,22.86,0,0,0-7.34,16.79,23.18,23.18,0,0,0,.39,4.2h45a23.18,23.18,0,0,0,.39-4.2,22.85,22.85,0,0,0-7.33-16.79A22.81,22.81,0,0,0,113.39,147.05Z"/><g id="crown_1-2" data-name="crown 1"><path class="cls-3" d="M113.15,186.57H68v17.79s11.26-14.83,22.59,4.8c11.21-19.63,22.47-4.8,22.53-4.8Z"/><circle class="cls-3" cx="113.03" cy="204.36" r="2.97"/><circle class="cls-3" cx="67.97" cy="204.36" r="2.97"/></g><polygon class="cls-3" points="87.6 36.7 90.69 30.52 93.78 36.7 90.69 42.88 87.6 36.7"/><polygon class="cls-3" points="87.22 216.3 90.31 210.12 93.4 216.3 90.31 222.48 87.22 216.3"/></g></g></g></svg>