<svg xmlns="http://www.w3.org/2000/svg" viewBox="0 0 180 252"><defs><style>.cls-1{fill:#fff;}.cls-2{font-size:22px;}.cls-2,.cls-3,.cls-4{fill:red;}.cls-2,.cls-4{font-family:Vollkorn-Regular, Vollkorn;}.cls-4{font-size:20px;}</style></defs><title>Diamond-jack</title><g id="Diamonds"><g id="jack-2" data-name="jack"><rect class="cls-1" width="180" height="252" rx="12" ry="12"/><text class="cls-2" transform="translate(16.76 26.27)">J</text><polygon class="cls-3" points="25 18 29 10 33 18 29 26 25 18"/><text class="cls-4" transform="translate(162.62 226.94) rotate(180)">J</text><polygon class="cls-3" points="147 234 151 226 155 234 151 242 147 234"/><g id="Jack-3" data-name="Jack"><g id="crown_3" data-name="crown 3"><path class="cls-3" d="M67,65.86h45.81V61.05S101.39,62.86,89.9,43C78.54,62.86,67.06,61.05,67,61.05Z"/></g><g id="crown_3-2" data-name="crown 3"><path class="cls-3" d="M67,185.52h45.81v4.81s-11.42-1.8-22.91,18.1c-11.36-19.9-22.84-18.1-22.9-18.1Z"/></g><path class="cls-3" d="M67.38,105v40.65l45.17-45.16a22.78,22.78,0,0,0-6.86-12.22A22.7,22.7,0,0,0,113,71.57a23.16,23.16,0,0,0-.39-4.19H67.77a23.16,23.16,0,0,0-.39,4.19,22.7,22.7,0,0,0,7.31,16.72A22.73,22.73,0,0,0,67.38,105Z"/><path class="cls-3" d="M113,146.36V105.43L67.79,150.64a22.7,22.7,0,0,0,6.9,12.45,22.73,22.73,0,0,0-7.31,16.73,23,23,0,0,0,.39,4.18h44.84a23,23,0,0,0,.39-4.18,22.73,22.73,0,0,0-7.31-16.73A22.73,22.73,0,0,0,113,146.36Z"/><polygon class="cls-3" points="86.92 36.03 90 29.88 93.08 36.03 90 42.19 86.92 36.03"/><polygon class="cls-3" points="86.54 214.97 89.61 208.81 92.69 214.97 89.61 221.13 86.54 214.97"/></g></g></g></svg>