<svg xmlns="http://www.w3.org/2000/svg" viewBox="0 0 180 252"><defs><style>.cls-1{fill:#fff;}.cls-2{font-size:22px;}.cls-2,.cls-3,.cls-4{fill:red;}.cls-2,.cls-4{font-family:Vollkorn-Regular, Vollkorn;}.cls-4{font-size:20px;}</style></defs><title>Diamond-6</title><g id="Diamonds"><g id="_6-2" data-name="6"><rect class="cls-1" width="180" height="252" rx="12" ry="12"/><text class="cls-2" transform="translate(12.87 26.27)">6</text><polygon class="cls-3" points="25 18 29 10 33 18 29 26 25 18"/><text class="cls-4" transform="translate(166.16 226.94) rotate(180)">6</text><polygon class="cls-3" points="147 234 151 226 155 234 151 242 147 234"/><polygon class="cls-3" points="36 45 45 27 54 45 45 63 36 45"/><polygon class="cls-3" points="126 45 135 27 144 45 135 63 126 45"/><polygon class="cls-3" points="126 207 135 189 144 207 135 225 126 207"/><polygon class="cls-3" points="36 207 45 189 54 207 45 225 36 207"/><polygon class="cls-3" points="36 126 45 108 54 126 45 144 36 126"/><polygon class="cls-3" points="126 126 135 108 144 126 135 144 126 126"/></g></g></svg>