<svg xmlns="http://www.w3.org/2000/svg" viewBox="0 0 180 252"><defs><style>.cls-1{fill:#fff;}.cls-2{font-size:22px;}.cls-2,.cls-3,.cls-4{fill:red;}.cls-2,.cls-4{font-family:Vollkorn-Regular, Vollkorn;}.cls-4{font-size:20px;}</style></defs><title>Diamond-queen</title><g id="Diamonds"><g id="queen-2" data-name="queen"><rect class="cls-1" width="180" height="252" rx="12" ry="12"/><text class="cls-2" transform="translate(7.92 26.27)">Q</text><polygon class="cls-3" points="25 18 29 10 33 18 29 26 25 18"/><text class="cls-4" transform="translate(170.66 226.94) rotate(180)">Q</text><polygon class="cls-3" points="147 234 151 226 155 234 151 242 147 234"/><g id="Queen-3" data-name="Queen"><path class="cls-3" d="M67.55,106.48V147l45-45a22.72,22.72,0,0,0-6.83-12.17A22.67,22.67,0,0,0,112.61,69H67.93a22.77,22.77,0,0,0,6.9,20.83A22.65,22.65,0,0,0,67.55,106.48Z"/><path class="cls-3" d="M113,147.67V106.88L68,151.93a22.72,22.72,0,0,0,6.88,12.41,22.77,22.77,0,0,0-6.9,20.83h44.68a22.66,22.66,0,0,0-6.89-20.83A22.65,22.65,0,0,0,113,147.67Z"/><g id="crown_2" data-name="crown 2"><path class="cls-3" d="M112.9,186.5H67.27v18s11.38-15,22.81,4.85c11.32-19.82,22.7-4.85,22.76-4.85Z"/></g><g id="crown_2-2" data-name="crown 2"><path class="cls-3" d="M67.27,67.45H112.9v-18s-11.38,15-22.82-4.85c-11.31,19.82-22.69,4.85-22.75,4.85Z"/></g><polygon class="cls-3" points="87.4 37.36 90.47 31.22 93.53 37.36 90.47 43.49 87.4 37.36"/><polygon class="cls-3" points="87.02 215.64 90.08 209.51 93.15 215.64 90.08 221.78 87.02 215.64"/></g></g></g></svg>