<svg xmlns="http://www.w3.org/2000/svg" viewBox="0 0 180 252"><defs><style>.cls-1{fill:#fff;}.cls-2{font-size:22px;}.cls-2,.cls-3,.cls-4{fill:red;}.cls-2,.cls-4{font-family:Vollkorn-Regular, Vollkorn;}.cls-4{font-size:20px;}</style></defs><title>Diamond-10</title><g id="Diamonds"><g id="_10-2" data-name="10"><rect class="cls-1" width="180" height="252" rx="12" ry="12"/><text class="cls-2" transform="translate(2.24 26.27)">10</text><polygon class="cls-3" points="25 18 29 10 33 18 29 26 25 18"/><text class="cls-4" transform="translate(175.82 226.94) rotate(180)">10</text><polygon class="cls-3" points="147 234 151 226 155 234 151 242 147 234"/><polygon class="cls-3" points="36 45 45 27 54 45 45 63 36 45"/><polygon class="cls-3" points="126 45 135 27 144 45 135 63 126 45"/><polygon class="cls-3" points="126 207 135 189 144 207 135 225 126 207"/><polygon class="cls-3" points="36 207 45 189 54 207 45 225 36 207"/><polygon class="cls-3" points="36 108 45 90 54 108 45 126 36 108"/><polygon class="cls-3" points="126 108 135 90 144 108 135 126 126 108"/><polygon class="cls-3" points="81 77 90 59 99 77 90 95 81 77"/><polygon class="cls-3" points="36 144 45 126 54 144 45 162 36 144"/><polygon class="cls-3" points="126 144 135 126 144 144 135 162 126 144"/><polygon class="cls-3" points="81 176 90 158 99 176 90 194 81 176"/></g></g></svg>