<svg xmlns="http://www.w3.org/2000/svg" viewBox="0 0 180 252"><defs><style>.cls-1,.cls-6,.cls-7,.cls-8,.cls-9{fill:none;}.cls-2{fill:#fff;}.cls-3{font-size:22px;}.cls-3,.cls-4,.cls-5{fill:red;}.cls-3,.cls-5{font-family:Vollkorn-Regular, Vollkorn;}.cls-5{font-size:20px;}.cls-6,.cls-7,.cls-8,.cls-9{stroke:#fff;stroke-miterlimit:10;stroke-width:5px;}.cls-7,.cls-8,.cls-9{stroke-linecap:round;}.cls-8{stroke-dasharray:5.27 10.54;}.cls-9{stroke-dasharray:5.27 10.54;}</style></defs><title>Diamond-ace</title><g id="Spades"><g id="king"><rect class="cls-1" width="36" height="27"/><rect class="cls-1" x="1" y="225" width="35" height="27"/></g></g><g id="Diamonds"><g id="Ace-2" data-name="Ace"><rect class="cls-2" width="180" height="252" rx="12" ry="12"/><text class="cls-3" transform="translate(8.51 26.27)">A</text><polygon class="cls-4" points="25 18 29 10 33 18 29 26 25 18"/><text class="cls-5" transform="translate(170.12 226.94) rotate(180)">A </text><polygon class="cls-4" points="147 234 151 226 155 234 151 242 147 234"/><polygon class="cls-4" points="46 126 91 36 136 126 91 216 46 126"/><polygon class="cls-6" points="52.43 126 91 48.86 129.57 126 91 203.14 52.43 126"/><polyline class="cls-7" points="63.96 128.24 62.84 126 63.96 123.76"/><line class="cls-8" x1="68.67" y1="114.34" x2="87.53" y2="76.64"/><polyline class="cls-7" points="89.88 71.92 91 69.69 92.12 71.92"/><line class="cls-9" x1="96.83" y1="81.35" x2="115.68" y2="119.05"/><polyline class="cls-7" points="118.04 123.76 119.16 126 118.04 128.24"/><line class="cls-8" x1="113.33" y1="137.66" x2="94.47" y2="175.36"/><polyline class="cls-7" points="92.12 180.07 91 182.31 89.88 180.07"/><line class="cls-9" x1="85.17" y1="170.65" x2="66.32" y2="132.95"/><polygon class="cls-2" points="74.8 126 91 93.6 107.2 126 91 158.4 74.8 126"/></g></g></svg>