<svg xmlns="http://www.w3.org/2000/svg" viewBox="0 0 180 252"><defs><style>.cls-1{fill:#fff;}.cls-2{font-size:22px;}.cls-2,.cls-3,.cls-4{fill:red;}.cls-2,.cls-4{font-family:Vollkorn-Regular, Vollkorn;}.cls-4{font-size:20px;}</style></defs><title>Diamond-5</title><g id="Diamonds"><g id="_5-2" data-name="5"><rect class="cls-1" width="180" height="252" rx="12" ry="12"/><text class="cls-2" transform="translate(13.42 26.27)">5</text><polygon class="cls-3" points="25 18 29 10 33 18 29 26 25 18"/><text class="cls-4" transform="translate(165.66 226.94) rotate(180)">5</text><polygon class="cls-3" points="147 234 151 226 155 234 151 242 147 234"/><polygon class="cls-3" points="36 45 45 27 54 45 45 63 36 45"/><polygon class="cls-3" points="126 45 135 27 144 45 135 63 126 45"/><polygon class="cls-3" points="126 207 135 189 144 207 135 225 126 207"/><polygon class="cls-3" points="36 207 45 189 54 207 45 225 36 207"/><polygon class="cls-3" points="81 126 90 108 99 126 90 144 81 126"/></g></g></svg>